<svg xmlns="http://www.w3.org/2000/svg" xmlns:svg="http://www.w3.org/2000/svg" version="1.1" id="svg2" viewBox="252.35 417.26 289 288.5">
  <defs id="defs6"/>
  <g id="g8" transform="matrix(1.3333333,0,0,-1.3333333,0,1122.5197)">
    <g id="g10">
      <path d="m 250.0894,397.8649 0.0939,-3.7224 151.9582,-0.0573 c 0.8201,3.8993 2.2335,9.7328 2.7037,15.9358 0.5667,5.6616 0.7413,13.551 0.0136,19.0168 l -19.2696,0.0445 c 0.0102,-2.2141 -0.2928,-5.1035 -0.5786,-7.3794 -0.9498,-6.5489 -0.6343,-7.6621 -3.4897,-7.42 -3.4438,0 -104.322,-0.7356 -106.5104,0.3285 -0.0527,0.0907 -0.1074,0.341 -0.121,0.2886 l -0.2855,72.3424 c -5.7061,-0.017 1.3896,0.003 -11.0134,0.003 l -11.1152,0.0382 c -1.906,-0.004 -1.5018,0.0136 -2.403,0.004 l 0.017,-89.4223 z" style="fill:#231f20;fill-opacity:1;fill-rule:evenodd;stroke:none" id="path12"/>
      <path d="m 256.703,481.5558 c 0,-25.2192 -0.2373,-55.9278 0.1372,-80.9092 17.6153,-0.4221 112.238,-0.0463 130.3347,-0.044 2.0795,0 7.0342,-0.4501 8.1958,0.9437 1.8797,2.2569 3.06,18.6911 2.9582,21.0367 -3.3352,0.2784 -4.8809,0.5389 -6.0349,0.0621 -1.1495,-0.4751 -1.1719,-4.0377 -2.4903,-11.0545 -1.0505,-3.9005 0.3932,-4.1012 -5.5363,-3.9005 l -111.977,0.005 c -5.8201,5e-4 -4.318,-1.8802 -4.318,15.1891 v 39.0932 c 0,6.2425 0.1341,12.3919 -0.0607,19.5917 -11.8715,5e-4 -9.301,0.0439 -11.2087,-0.0134" style="fill:#ffffff;fill-opacity:1;fill-rule:evenodd;stroke:none" id="path14"/>
      <path d="m 212.686,354.2689 129.3642,-0.0785 c 0.005,1.1724 0.002,-2.0645 -0.007,7.8284 -0.009,10.0987 0.1683,32.0474 0.015,40.1573 -10.5211,0.1211 -23.7974,0.0641 -34.8214,0.005 l -0.2455,-15.7865 c 0.006,-5.5601 -0.1281,-5.5516 -0.1281,-5.5516 -11.0021,0.005 -68.6046,-0.1046 -76.9065,0.5553 -3.3641,4.7188 -8.8367,19.8368 -9.7424,27.1457 -5.3368,21.0195 4.851,48.9084 17.235,69.3082 1.7192,3.0158 5.0076,7.1467 6.6172,9.3767 -10.0849,0.1335 -19.5078,0.0176 -30.1859,0.1052 -0.4941,-0.5862 -0.7245,-0.8067 -1.4655,-1.7991 -4.4138,-5.7532 -11.1909,-15.7003 -15.0406,-27.0437 -1.198,-3.1915 -5.9114,-17.1933 -6.0526,-21.1025 -1.6843,-17.1017 -2.2983,-30.4773 3.1771,-47.609 2.8165,-12.5209 10.8422,-26.8322 18.1865,-35.5105 z" style="fill:#231f20;fill-opacity:1;fill-rule:evenodd;stroke:#231f20;stroke-width:0.216;stroke-linecap:butt;stroke-linejoin:miter;stroke-miterlimit:2.61313;stroke-dasharray:none;stroke-opacity:1" id="path16"/>
      <path d="m 218.4191,362.1764 114.8522,0.1001 c 0.2418,4.6219 0.3124,27.7424 0.0918,32.0443 -1.22,-0.0295 -5.7302,0.028 -8.2247,0.0249 -2.9305,-0.003 -6.3023,0.0751 -9.2262,-0.076 -0.1953,-6.3085 -0.1477,-17.7624 -0.3538,-21.524 -8.712,-0.2047 -82.4825,0.2154 -90.8229,0.3266 -23.1599,40.4577 -15.2203,74.2926 6.3255,108.1754 l -11.9761,0.0391 c -27.06,-34.5225 -26.0416,-87.7042 -0.6658,-119.1104" style="fill:#ffffff;fill-opacity:1;fill-rule:evenodd;stroke:none" id="path18"/>
      <path d="m 297.6378,527.6288 c 59.6475,0 108,-48.0581 108,-107.3421 0,-59.2838 -48.3525,-107.3418 -108,-107.3418 -59.6475,0 -108,48.058 -108,107.3418 0,59.284 48.3525,107.3421 108,107.3421 z" style="fill:none;stroke:#00a650;stroke-width:0.9998;stroke-linecap:butt;stroke-linejoin:miter;stroke-miterlimit:2.61313;stroke-dasharray:none;stroke-opacity:1" id="path20"/>
      <text xml:space="preserve" transform="matrix(0.9097,0,0,-1,286.327,417.6944)" style="font-variant:normal;font-weight:normal;font-size:63.28px;font-family:Barbatrick;-inkscape-font-specification:Barbatrick-Regular;writing-mode:lr-tb;fill:#2e3092;fill-opacity:1;fill-rule:nonzero;stroke:none" id="text24"><tspan x="0 22.211281 60.116001" y="0" id="tspan22">IFE</tspan></text>
      <path d="m 297.6378,528.9446 c 32.6038,0 61.7689,-14.3042 81.2381,-36.8079 H 216.3997 c 19.4692,22.5037 48.6343,36.8079 81.2381,36.8079" style="fill:#f5821f;fill-opacity:1;fill-rule:evenodd;stroke:none" id="path26"/>
      <path d="m 297.6378,503.1567 c 17.7188,0 33.569,-4.2826 44.1496,-11.02 h -88.2995 c 10.5809,6.7374 26.4308,11.02 44.1499,11.02 z" style="fill:#ffffff;fill-opacity:1;fill-rule:evenodd;stroke:#ffffff;stroke-width:0.216;stroke-linecap:butt;stroke-linejoin:miter;stroke-miterlimit:2.61313;stroke-dasharray:none;stroke-opacity:1" id="path28"/>
      <g id="g30">
        <path d="m 297.6378,312.9446 c 32.6038,0 61.7689,14.3045 81.2381,36.8082 H 216.3997 c 19.4692,-22.5037 48.6343,-36.8082 81.2381,-36.8082" style="fill:#00a650;fill-opacity:1;fill-rule:evenodd;stroke:none" id="path32"/>
        <path d="m 297.6378,338.7328 c 17.7188,0 33.569,4.2826 44.1496,11.02 h -88.2995 c 10.5809,-6.7374 26.4308,-11.02 44.1499,-11.02 z" style="fill:#ffffff;fill-opacity:1;fill-rule:evenodd;stroke:#ffffff;stroke-width:0.216;stroke-linecap:butt;stroke-linejoin:miter;stroke-miterlimit:2.61313;stroke-dasharray:none;stroke-opacity:1" id="path34"/>
      </g>
    </g>
  </g>
</svg>